<mxfile host="app.diagrams.net" modified="2023-04-19T04:15:56.773Z" agent="Mozilla/5.0 (Windows NT 10.0; Win64; x64) AppleWebKit/537.36 (KHTML, like Gecko) Chrome/112.0.0.0 Safari/537.36" etag="Ooilqv6c3NprGHLhM60y" version="21.1.8" type="github">
  <diagram name="第 1 页" id="JTevHGfM6aihPSTmb18D">
    <mxGraphModel dx="1518" dy="636" grid="1" gridSize="10" guides="1" tooltips="1" connect="1" arrows="1" fold="1" page="1" pageScale="1" pageWidth="827" pageHeight="1169" math="0" shadow="0">
      <root>
        <mxCell id="0" />
        <mxCell id="1" parent="0" />
        <mxCell id="hU0Tc-OAAjU42-pn-kfM-34" value="" style="rounded=1;whiteSpace=wrap;html=1;" vertex="1" parent="1">
          <mxGeometry x="150" y="140" width="720" height="600" as="geometry" />
        </mxCell>
        <mxCell id="hU0Tc-OAAjU42-pn-kfM-5" value="" style="rounded=0;whiteSpace=wrap;html=1;fillColor=#fff2cc;strokeColor=#d6b656;" vertex="1" parent="1">
          <mxGeometry x="350" y="170" width="411" height="40" as="geometry" />
        </mxCell>
        <mxCell id="hU0Tc-OAAjU42-pn-kfM-6" value="" style="rounded=0;whiteSpace=wrap;html=1;fillColor=#d5e8d4;strokeColor=#82b366;" vertex="1" parent="1">
          <mxGeometry x="350" y="250" width="411" height="40" as="geometry" />
        </mxCell>
        <mxCell id="hU0Tc-OAAjU42-pn-kfM-8" value="展示层" style="shape=hexagon;perimeter=hexagonPerimeter2;whiteSpace=wrap;html=1;fixedSize=1;fillColor=#fff2cc;strokeColor=#d6b656;" vertex="1" parent="1">
          <mxGeometry x="210" y="170" width="110" height="40" as="geometry" />
        </mxCell>
        <mxCell id="hU0Tc-OAAjU42-pn-kfM-10" value="" style="endArrow=none;dashed=1;html=1;rounded=0;exitX=1;exitY=0.5;exitDx=0;exitDy=0;entryX=0;entryY=0.5;entryDx=0;entryDy=0;" edge="1" parent="1" source="hU0Tc-OAAjU42-pn-kfM-8" target="hU0Tc-OAAjU42-pn-kfM-5">
          <mxGeometry width="50" height="50" relative="1" as="geometry">
            <mxPoint x="300" y="280" as="sourcePoint" />
            <mxPoint x="330" y="250" as="targetPoint" />
          </mxGeometry>
        </mxCell>
        <mxCell id="hU0Tc-OAAjU42-pn-kfM-11" value="&lt;font&gt;通讯层&lt;/font&gt;" style="shape=hexagon;perimeter=hexagonPerimeter2;whiteSpace=wrap;html=1;fixedSize=1;fillColor=#d5e8d4;strokeColor=#82b366;" vertex="1" parent="1">
          <mxGeometry x="210" y="250" width="110" height="40" as="geometry" />
        </mxCell>
        <mxCell id="hU0Tc-OAAjU42-pn-kfM-12" value="" style="endArrow=none;dashed=1;html=1;rounded=0;exitX=1;exitY=0.5;exitDx=0;exitDy=0;entryX=0;entryY=0.5;entryDx=0;entryDy=0;" edge="1" parent="1" source="hU0Tc-OAAjU42-pn-kfM-11" target="hU0Tc-OAAjU42-pn-kfM-6">
          <mxGeometry width="50" height="50" relative="1" as="geometry">
            <mxPoint x="330" y="200" as="sourcePoint" />
            <mxPoint x="360" y="200" as="targetPoint" />
          </mxGeometry>
        </mxCell>
        <mxCell id="hU0Tc-OAAjU42-pn-kfM-13" value="Web端" style="rounded=1;whiteSpace=wrap;html=1;fillColor=#ffe6cc;strokeColor=#d79b00;" vertex="1" parent="1">
          <mxGeometry x="505.5" y="175" width="100" height="30" as="geometry" />
        </mxCell>
        <mxCell id="hU0Tc-OAAjU42-pn-kfM-16" value="&lt;font&gt;HTTP&lt;/font&gt;" style="rounded=1;whiteSpace=wrap;html=1;fillColor=#dae8fc;strokeColor=#6c8ebf;" vertex="1" parent="1">
          <mxGeometry x="420" y="255" width="100" height="30" as="geometry" />
        </mxCell>
        <mxCell id="hU0Tc-OAAjU42-pn-kfM-17" value="&lt;font&gt;WebSocket&lt;/font&gt;" style="rounded=1;whiteSpace=wrap;html=1;fillColor=#dae8fc;strokeColor=#6c8ebf;" vertex="1" parent="1">
          <mxGeometry x="580" y="255" width="100" height="30" as="geometry" />
        </mxCell>
        <mxCell id="hU0Tc-OAAjU42-pn-kfM-18" value="" style="rounded=0;whiteSpace=wrap;html=1;fillColor=#a20025;strokeColor=#6F0000;fontColor=#ffffff;" vertex="1" parent="1">
          <mxGeometry x="350" y="320" width="410" height="290" as="geometry" />
        </mxCell>
        <mxCell id="hU0Tc-OAAjU42-pn-kfM-23" value="&lt;font&gt;服务层&lt;/font&gt;" style="shape=hexagon;perimeter=hexagonPerimeter2;whiteSpace=wrap;html=1;fixedSize=1;fillColor=#a20025;strokeColor=#6F0000;fontColor=#ffffff;" vertex="1" parent="1">
          <mxGeometry x="210" y="445" width="110" height="40" as="geometry" />
        </mxCell>
        <mxCell id="hU0Tc-OAAjU42-pn-kfM-29" value="" style="rounded=0;whiteSpace=wrap;html=1;" vertex="1" parent="1">
          <mxGeometry x="460" y="330" width="290" height="250" as="geometry" />
        </mxCell>
        <mxCell id="hU0Tc-OAAjU42-pn-kfM-20" value="注册路由" style="rounded=0;whiteSpace=wrap;html=1;fillColor=#f8cecc;strokeColor=#b85450;" vertex="1" parent="1">
          <mxGeometry x="480" y="340" width="120" height="60" as="geometry" />
        </mxCell>
        <mxCell id="hU0Tc-OAAjU42-pn-kfM-24" value="" style="endArrow=none;dashed=1;html=1;rounded=0;exitX=1;exitY=0.5;exitDx=0;exitDy=0;entryX=0;entryY=0.5;entryDx=0;entryDy=0;" edge="1" parent="1" source="hU0Tc-OAAjU42-pn-kfM-23" target="hU0Tc-OAAjU42-pn-kfM-18">
          <mxGeometry width="50" height="50" relative="1" as="geometry">
            <mxPoint x="330" y="260" as="sourcePoint" />
            <mxPoint x="360" y="260" as="targetPoint" />
          </mxGeometry>
        </mxCell>
        <mxCell id="hU0Tc-OAAjU42-pn-kfM-25" value="&lt;font&gt;日志记录&lt;/font&gt;" style="rounded=0;whiteSpace=wrap;html=1;fillColor=#f8cecc;strokeColor=#b85450;" vertex="1" parent="1">
          <mxGeometry x="480" y="420" width="120" height="60" as="geometry" />
        </mxCell>
        <mxCell id="hU0Tc-OAAjU42-pn-kfM-26" value="&lt;font&gt;定时任务&lt;/font&gt;" style="rounded=0;whiteSpace=wrap;html=1;fillColor=#f8cecc;strokeColor=#b85450;" vertex="1" parent="1">
          <mxGeometry x="620" y="340" width="120" height="60" as="geometry" />
        </mxCell>
        <mxCell id="hU0Tc-OAAjU42-pn-kfM-27" value="数据处理" style="rounded=0;whiteSpace=wrap;html=1;fillColor=#f8cecc;strokeColor=#b85450;" vertex="1" parent="1">
          <mxGeometry x="620" y="420" width="120" height="60" as="geometry" />
        </mxCell>
        <mxCell id="hU0Tc-OAAjU42-pn-kfM-30" value="&lt;font&gt;记录用户&lt;/font&gt;" style="rounded=0;whiteSpace=wrap;html=1;fillColor=#f8cecc;strokeColor=#b85450;" vertex="1" parent="1">
          <mxGeometry x="480" y="500" width="120" height="60" as="geometry" />
        </mxCell>
        <mxCell id="hU0Tc-OAAjU42-pn-kfM-31" value="&lt;font&gt;消息模型&lt;/font&gt;" style="rounded=0;whiteSpace=wrap;html=1;fillColor=#f8cecc;strokeColor=#b85450;" vertex="1" parent="1">
          <mxGeometry x="620" y="500" width="120" height="60" as="geometry" />
        </mxCell>
        <mxCell id="hU0Tc-OAAjU42-pn-kfM-35" value="&lt;font&gt;数据层&lt;/font&gt;" style="shape=hexagon;perimeter=hexagonPerimeter2;whiteSpace=wrap;html=1;fixedSize=1;fillColor=#b0e3e6;strokeColor=#0e8088;" vertex="1" parent="1">
          <mxGeometry x="210" y="660" width="110" height="40" as="geometry" />
        </mxCell>
        <mxCell id="hU0Tc-OAAjU42-pn-kfM-36" value="" style="endArrow=none;dashed=1;html=1;rounded=0;exitX=1;exitY=0.5;exitDx=0;exitDy=0;entryX=0;entryY=0.5;entryDx=0;entryDy=0;" edge="1" parent="1">
          <mxGeometry width="50" height="50" relative="1" as="geometry">
            <mxPoint x="320" y="679.76" as="sourcePoint" />
            <mxPoint x="350" y="679.76" as="targetPoint" />
          </mxGeometry>
        </mxCell>
        <mxCell id="hU0Tc-OAAjU42-pn-kfM-39" value="" style="rounded=0;whiteSpace=wrap;html=1;fillColor=#b0e3e6;strokeColor=#0e8088;" vertex="1" parent="1">
          <mxGeometry x="351" y="640" width="410" height="80" as="geometry" />
        </mxCell>
        <mxCell id="hU0Tc-OAAjU42-pn-kfM-37" value="Reis" style="shape=cylinder3;whiteSpace=wrap;html=1;boundedLbl=1;backgroundOutline=1;size=15;fillColor=#b1ddf0;strokeColor=#10739e;" vertex="1" parent="1">
          <mxGeometry x="513.75" y="645" width="52.5" height="70" as="geometry" />
        </mxCell>
      </root>
    </mxGraphModel>
  </diagram>
</mxfile>
